<?xml version="1.0" encoding="UTF-8" standalone="no"?>
<!-- Created with Inkscape (http://www.inkscape.org/) -->

<svg
   className={className}
   width="135" height="67" viewBox="0 0 135 67" fill="none" xmlns="http://www.w3.org/2000/svg">
  <defs
     id="defs2" />
  <sodipodi:namedview
     id="base"
     pagecolor="#ffffff"
     bordercolor="#666666"
     borderopacity="1.0"
     inkscape:pageopacity="0.0"
     inkscape:pageshadow="2"
     inkscape:zoom="0.55684659"
     inkscape:cx="627.24569"
     inkscape:cy="494.18301"
     inkscape:document-units="mm"
     inkscape:current-layer="layer1"
     showgrid="false"
     inkscape:window-width="1366"
     inkscape:window-height="744"
     inkscape:window-x="0"
     inkscape:window-y="0"
     inkscape:window-maximized="1" />
  <metadata
     id="metadata5">
    <rdf:RDF>
      <cc:Work
         rdf:about="">
        <dc:format>image/svg+xml</dc:format>
        <dc:type
           rdf:resource="http://purl.org/dc/dcmitype/StillImage" />
        <dc:title></dc:title>
      </cc:Work>
    </rdf:RDF>
  </metadata>
  <g
     inkscape:label="Layer 1"
     inkscape:groupmode="layer"
     id="layer1"
     transform="translate(0,-87)">
    <path
       style="fill:#ff6600;stroke:#000000;stroke-width:0.41942561"
       d="m 209.40194,276.45054 c -0.59168,-0.3956 -2.24441,-1.93147 -3.67271,-3.41304 -3.90409,-4.04968 -6.54985,-5.79421 -8.91427,-5.87777 -2.15707,-0.0762 -3.62752,0.79354 -3.94555,2.33376 -0.24004,1.16259 -0.82852,1.26979 -0.82852,0.15094 0,-1.88271 1.0328,-3.79884 2.51737,-4.67038 l 1.51691,-0.89053 -0.56639,-1.6268 c -0.73884,-2.12205 -0.71483,-8.7311 0.0485,-13.32729 1.5163,-9.13116 5.69129,-18.12298 9.57194,-20.61547 1.48099,-0.9512 3.80551,-1.02881 4.89528,-0.16352 1.26545,1.00491 2.99047,3.1073 2.99047,3.6447 0,0.27145 -0.79921,0.49583 -1.77602,0.49863 -5.01832,0.0137 -9.91376,8.22819 -12.07047,20.25247 -0.82053,4.57455 -1.19634,9.88359 -0.76788,10.84721 0.16716,0.37598 1.31266,1.03727 2.54552,1.46956 l 2.2416,0.78597 1.73979,-1.45559 c 5.04816,-4.22355 9.22237,-15.95873 9.71956,-27.32513 l 0.2285,-5.22345 0.92207,1.42028 c 1.24505,1.91768 1.44678,4.13254 0.81525,8.95093 -0.79181,6.04148 -3.35197,13.61608 -6.20434,18.35651 -1.26433,2.10125 -2.9374,4.44408 -3.71794,5.20629 l -1.41914,1.38586 1.24999,0.93143 c 0.68751,0.51226 2.29446,1.59995 3.57101,2.41708 l 2.32102,1.48567 0.94833,-1.03801 c 2.01084,-2.20104 1.28765,1.72886 -0.84878,4.61234 -1.35785,1.83267 -1.58591,1.89699 -3.11102,0.87727 z m -36.33134,-8.56037 c -0.54387,-0.83603 -0.98884,-1.83211 -0.98884,-2.21353 0,-3.7043 2.28568,-7.85869 4.98819,-9.06638 0.9777,-0.4369 1.77761,-1.02409 1.77761,-1.30483 0,-0.28076 -0.24506,-2.16667 -0.54456,-4.19092 -0.2995,-2.02422 -0.459,-4.49077 -0.35444,-5.4812 0.24448,-2.31595 1.67247,-5.18409 3.10321,-6.2329 1.07537,-0.78828 1.16241,-0.77123 2.08969,0.40927 2.58026,3.28482 3.07053,5.51185 1.94798,8.84874 -0.62129,1.84688 -1.68289,2.12514 -1.30088,0.34101 0.53362,-2.49225 0.36751,-3.25014 -0.71237,-3.25014 -1.40626,0 -2.19767,2.50169 -2.19837,6.94929 l -6.7e-4,3.30916 1.01487,-0.22897 c 1.32465,-0.29886 1.36987,0.91182 0.0493,1.31784 -0.8897,0.27353 -0.98071,0.52124 -1.15719,3.14964 -0.27101,4.03637 -1.09074,6.36749 -2.77152,7.88165 -1.9881,1.79101 -3.67511,1.70984 -4.94207,-0.23773 z m 3.52873,-2.12326 c 1.25339,-1.69167 2.24823,-4.43474 2.24823,-6.199 0,-1.04498 -0.0518,-1.06369 -0.95572,-0.3451 -1.39457,1.10856 -3.44205,4.79784 -3.44205,6.20208 0,2.36749 0.58041,2.45986 2.14954,0.34202 z m -109.764708,1.92023 c -1.690317,-0.97609 -3.110088,-2.61355 -3.676373,-4.24008 -0.416627,-1.19667 -0.407356,-1.64803 0.07299,-3.55404 2.429167,-9.63885 6.349706,-25.86602 6.544514,-27.08785 l 0.239747,-1.50368 -1.101442,0.98367 c -1.518456,1.35605 -3.266491,4.59693 -3.938578,7.30216 -0.309059,1.244 -0.679945,2.26182 -0.824185,2.26182 -0.144244,0 -0.661125,-0.72868 -1.148627,-1.61929 -0.918805,-1.67851 -0.919592,-2.41362 -0.0055,-5.141 0.692288,-2.06556 2.549996,-4.52738 4.38378,-5.80935 2.280228,-1.59405 7.53363,-1.70487 10.314512,-0.21759 2.621433,1.40199 5.495601,5.8637 6.231637,9.67365 1.91828,9.92963 -1.986544,22.71932 -8.423755,27.59075 -2.542809,1.92429 -6.592126,2.55998 -8.668708,1.36083 z m 6.804682,-5.40108 c 4.704789,-3.52861 8.133606,-12.37851 8.111537,-20.93619 -0.01806,-6.99794 -2.80844,-10.94118 -7.742414,-10.94118 -2.368168,0 -3.416642,0.66513 -1.944056,1.23328 0.433633,0.16725 1.186585,0.78562 1.673227,1.37405 l 0.884805,1.06988 -0.989082,2.57862 c -2.047688,5.33853 -6.589766,21.40798 -7.224371,25.55915 -0.176778,1.15635 -0.08333,1.43728 0.548601,1.64919 1.642802,0.55089 4.845644,-0.20972 6.681753,-1.5868 z m 53.561196,2.57399 c -0.48255,-1.77308 -0.48207,-2.29514 0.005,-5.75157 0.81419,-5.77391 4.69908,-18.81941 5.60432,-18.81941 0.50383,0 2.07024,2.74375 2.27205,3.97975 0.14403,0.88228 -0.31906,2.62231 -1.68469,6.32991 -2.7715,7.5244 -2.99361,8.86819 -0.83152,5.03096 3.07493,-5.45732 6.20011,-9.99128 7.6947,-11.16338 1.22909,-0.96389 1.5935,-1.04411 2.40245,-0.52903 1.33676,0.85115 1.47076,1.87893 0.50003,3.8353 -1.55132,3.12652 -2.97112,8.66861 -3.01199,11.75725 l -0.0378,2.86011 1.09945,-0.13188 c 1.52217,-0.18278 1.37538,0.77295 -0.29539,1.92281 -1.05338,0.72497 -1.65319,0.84603 -2.45036,0.4946 -0.58056,-0.25594 -1.07615,-0.46536 -1.10134,-0.46536 -0.0252,0 -0.23703,-0.70992 -0.47085,-1.57761 -0.53912,-2.00073 -0.26764,-5.68742 0.66465,-9.0264 0.39063,-1.39904 0.65416,-2.6299 0.58563,-2.73526 -0.0685,-0.10536 -0.79544,0.59596 -1.61538,1.55848 -1.3947,1.63728 -3.44264,5.1884 -6.71903,11.6508 -0.76126,1.50154 -1.54059,2.7301 -1.73181,2.7301 -0.19122,0 -0.58652,-0.87755 -0.87843,-1.95008 z m 21.37009,1.13229 c -0.55819,-0.44627 -1.37338,-1.32235 -1.81152,-1.94687 -0.7176,-1.02277 -0.78133,-1.47107 -0.64197,-4.51564 0.0887,-1.93429 0.66317,-5.6601 1.34336,-8.71034 l 1.18862,-5.33022 h -0.80878 c -0.55689,0 -0.91151,-0.4154 -1.13867,-1.3339 -0.47973,-1.9395 -0.46751,-1.95659 1.15356,-1.615 l 1.4835,0.31255 1.7191,-4.15178 c 0.94551,-2.28347 1.9639,-4.29617 2.2631,-4.47264 0.65675,-0.38741 3.19951,0.70786 3.19951,1.37818 0,0.26183 -0.60892,1.81228 -1.35315,3.44546 -0.74424,1.63316 -1.35316,3.16463 -1.35316,3.40322 0,0.23859 0.60892,0.43381 1.35316,0.43381 0.92261,0 1.35315,0.22751 1.35315,0.71504 0,0.71692 -1.39543,1.36505 -2.93895,1.36505 -0.68406,0 -0.98769,0.55412 -1.78086,3.25013 -2.123,7.21607 -3.01348,14.54055 -1.93507,15.91633 0.4699,0.59948 1.85248,0.20206 3.22483,-0.92696 0.8722,-0.71754 0.95735,0.006 0.13173,1.11796 -0.76921,1.03674 -2.63508,2.48429 -3.19696,2.4802 -0.24181,-10e-4 -0.89634,-0.36832 -1.45453,-0.81458 z m -61.095937,-0.88266 c -1.74886,-1.79595 -2.414204,-4.1807 -2.187295,-7.8398 0.622593,-10.03997 7.575333,-19.62722 10.827667,-14.93044 0.955454,1.3798 1.067387,2.77755 0.468474,5.85038 -0.621368,3.18802 -2.692204,6.38052 -5.544348,8.54737 -2.360829,1.79357 -2.515074,2.01494 -2.515074,3.60922 0,2.78122 0.282029,3.34359 1.676887,3.34359 1.284422,0 3.167247,-1.69025 4.54934,-4.08403 0.632238,-1.09504 1.554446,-1.51424 1.554446,-0.70661 0,0.77246 -3.213564,5.21109 -4.561912,6.30099 -1.732393,1.40033 -2.839141,1.37685 -4.268185,-0.0906 z m 3.24598,-10.25756 c 0.810003,-0.85669 1.944232,-2.43625 2.520508,-3.51014 1.001725,-1.86673 1.884527,-5.23843 1.518785,-5.80066 -0.332237,-0.51069 -2.591061,1.74238 -3.561821,3.55272 -1.416485,2.64162 -2.785665,7.31567 -2.142978,7.31567 0.105977,0 0.855503,-0.70091 1.665506,-1.55759 z m 67.916207,10.58271 c -1.81957,-1.37886 -2.55168,-3.78455 -2.40078,-7.88909 0.22986,-6.25388 3.00071,-12.79549 6.55066,-15.46534 2.02802,-1.52524 2.86734,-1.45928 4.35745,0.34251 0.82507,0.99763 0.89981,1.34456 0.70263,3.26142 -0.54055,5.25527 -2.14938,8.12372 -6.33665,11.2978 -2.42692,1.83966 -2.6654,2.49569 -1.95351,5.37398 0.61743,2.49629 3.1101,1.57105 5.78847,-2.1486 1.39637,-1.93926 1.97997,-2.04178 1.3518,-0.23751 -0.44602,1.28113 -2.8499,4.32491 -4.3242,5.47531 -1.35286,1.05565 -2.33268,1.0529 -3.73587,-0.0104 z m 2.52419,-10.0493 c 1.76566,-1.6549 3.78323,-5.18403 4.20715,-7.3591 0.48252,-2.47565 0.29343,-2.84143 -0.95109,-1.83983 -1.79516,1.44474 -3.49519,4.80478 -4.51291,8.91953 -0.38809,1.56915 -0.17076,1.61745 1.25685,0.2794 z m -59.47818,9.19438 c -2.663184,-2.75748 -3.60357,-9.26344 -2.092105,-14.47411 1.522495,-5.2487 5.062425,-9.28089 8.157315,-9.29162 3.01327,-0.0103 4.45724,4.79881 2.66867,8.88838 -0.78894,1.80393 -1.74303,2.39188 -2.55933,1.57713 -0.36135,-0.36067 -0.2378,-0.92021 0.592,-2.6811 1.11293,-2.36168 1.36034,-4.51816 0.57177,-4.98333 -1.18614,-0.69968 -4.28583,3.47943 -5.6214,7.57896 -0.93716,2.87659 -1.2713,8.17492 -0.65889,10.44769 0.39068,1.44983 0.54976,1.5904 1.47717,1.30527 0.57163,-0.17571 1.91374,-1.12021 2.98247,-2.09885 1.06872,-0.97864 2.02095,-1.58573 2.11609,-1.34911 0.2201,0.54742 -2.45577,4.36026 -3.82254,5.44671 -1.4252,1.13294 -2.45946,1.03359 -3.81122,-0.36602 z m 11.96436,0.61936 c -3.55789,-2.02319 -1.24025,-15.96524 3.60065,-21.66008 1.81961,-2.14058 2.98332,-2.17761 4.25614,-0.13541 0.53289,0.85504 0.9039,1.63243 0.82443,1.72752 -0.0796,0.0951 -0.85809,0.80087 -1.73027,1.56841 -1.81203,1.59462 -3.53595,4.63994 -4.76081,8.40994 -0.99933,3.07577 -1.47982,6.75477 -0.9482,7.25981 1.04115,0.98915 4.58999,-5.92549 7.26233,-14.15007 1.27209,-3.91513 1.81969,-4.46777 3.05321,-3.08125 0.58184,0.654 0.54814,0.93698 -0.66568,5.59021 -1.38533,5.31067 -1.97446,11.73357 -1.20668,13.15565 0.30423,0.56349 0.27031,0.79589 -0.15254,1.04533 -0.97559,0.57548 -2.426,0.33795 -2.86145,-0.46859 -0.43876,-0.81268 -0.31709,-5.6822 0.19466,-7.79103 0.13882,-0.57201 -0.39143,0.42014 -1.17833,2.20477 -1.43762,3.26049 -3.34932,6.09428 -4.39479,6.51452 -0.30901,0.12426 -0.8907,0.039 -1.29267,-0.18967 z m 125.62135,-0.25175 c -0.1129,-0.45242 -0.20534,-1.15701 -0.20534,-1.56576 0,-1.09656 4.72311,-8.50219 7.79342,-12.21973 1.46817,-1.77768 2.59854,-3.40833 2.51196,-3.62368 -0.36698,-0.91279 -3.44724,-1.08229 -4.72729,-0.26014 -1.17844,0.75689 -1.33614,0.75561 -1.8904,-0.0158 -0.3326,-0.46268 -0.70799,-1.56402 -0.83421,-2.44738 -0.50961,-3.56669 2.64339,-4.5653 6.80738,-2.15602 1.31891,0.76313 2.80071,1.26195 3.47581,1.17004 1.04084,-0.14169 1.21561,0.0177 1.51318,1.37391 0.24334,1.10967 0.22677,1.59024 -0.0599,1.73715 -2.13297,1.09293 -10.45989,12.54276 -9.98349,13.72767 0.35379,0.87998 4.2108,0.17118 5.78458,-1.06297 l 1.40638,-1.10294 0.69797,1.36398 c 1.03029,2.01341 0.92637,4.22729 -0.23234,4.94921 -1.29166,0.80476 -3.95146,0.67462 -6.43563,-0.31489 -2.18253,-0.86936 -3.4942,-0.69907 -4.16346,0.54057 -0.52279,0.96832 -1.20443,0.92461 -1.45858,-0.0936 z m -21.80866,-1.01621 c -0.88235,-1.14128 -1.06212,-1.74608 -1.06212,-3.57329 0,-4.57399 2.3977,-13.54845 4.6725,-17.48888 l 1.31212,-2.27285 1.40546,0.6473 c 0.77301,0.35602 1.40547,0.77729 1.40547,0.93615 0,0.1588 -0.2856,0.91002 -0.63466,1.66921 -0.34905,0.75917 -1.32192,3.48929 -2.16192,6.06693 -2.27042,6.9672 -3.32044,13.11692 -2.11853,12.40795 0.87535,-0.51636 5.02433,-9.58707 6.60255,-14.43482 1.64425,-5.05057 2.15931,-5.85514 3.41911,-5.34102 1.90679,0.77816 1.90769,0.91955 0.0446,6.95077 -2.1222,6.86997 -2.64005,10.10543 -2.10567,13.15604 0.21006,1.19912 0.29735,2.31022 0.19398,2.46911 -0.24023,0.36927 -2.79357,-1.38808 -3.25287,-2.23881 -0.19131,-0.35435 -0.45826,-1.63859 -0.59322,-2.85386 l -0.24539,-2.20962 -1.86673,3.58421 c -2.21762,4.25792 -3.26679,4.78631 -5.01466,2.52548 z m 16.00616,0.0422 c -0.59412,-0.91326 -0.82826,-1.83792 -0.82302,-3.25011 0.0128,-3.28386 1.26714,-10.97108 2.2393,-13.71683 1.16147,-3.28037 2.05401,-3.71145 3.69668,-1.78544 1.14481,1.34227 1.17538,1.45932 0.66044,2.5278 -1.32851,2.75668 -4.23572,14.02544 -4.23572,16.41831 0,1.43351 -0.52188,1.36776 -1.53768,-0.19379 z m 5.69714,-23.79252 c -0.62528,-1.21814 -0.78389,-3.42853 -0.42836,-5.9692 0.57317,-4.09598 0.73158,-4.26918 2.55352,-2.79158 0.86242,0.69942 1.64282,1.57133 1.73427,1.93762 0.0915,0.36627 -0.56456,2.01712 -1.45777,3.66854 -0.89321,1.6514 -1.72136,3.188 -1.84036,3.41464 -0.11903,0.22661 -0.37158,0.10963 -0.5613,-0.26002 z m -65.83783,-1.66086 c -0.10012,-0.40083 0.0464,-2.07307 0.32556,-3.71612 0.31684,-1.8652 0.46691,-4.61961 0.39943,-7.33275 -0.12426,-4.99744 0.0217,-5.17343 2.72655,-3.28689 1.47065,1.02574 1.48018,1.04962 1.31561,3.29406 -0.2145,2.92523 -1.55696,7.40378 -2.95083,9.84415 -1.19445,2.09121 -1.53688,2.31698 -1.81632,1.19755 z"
       id="path826"
       inkscape:connector-curvature="0" />
    <path
       style="fill:#ff6600;stroke-width:0.26458335"
       d="m 149.76952,219.96617 c -6.1646,-0.61396 -9.67339,-1.2572 -14.25983,-2.61417 -10.39684,-3.07605 -19.77938,-8.68676 -27.53284,-16.46447 -10.267959,-10.30008 -16.458301,-22.84368 -18.564641,-37.61776 -0.6095,-4.27505 -0.59945,-12.85317 0.02,-17.09962 2.2143,-15.17889 8.691622,-27.92983 19.489371,-38.36572 16.90167,-16.335269 41.01785,-22.227859 63.86667,-15.605319 7.56626,2.19301 16.00385,6.64079 22.48959,11.855119 2.70566,2.17526 7.38367,6.84851 9.58194,9.57217 7.361,9.12032 12.29948,20.50373 14.00372,32.27916 0.63168,4.36457 0.63182,13.36077 2.6e-4,17.72709 -2.08705,14.42948 -8.47544,27.28558 -18.54159,37.31338 -10.00978,9.97165 -22.64141,16.33713 -36.52977,18.40851 -3.2692,0.48759 -11.61392,0.85155 -14.02292,0.61163 z m 10.84792,-5.1645 c 5.03735,-0.54902 10.97045,-2.09966 16.27188,-4.25272 1.81901,-0.73875 3.78354,-1.51599 4.36562,-1.72719 4.79235,-1.73884 10.58896,-5.63662 18.30015,-12.30548 1.99293,-1.72355 4.62103,-4.70394 5.4788,-6.21321 0.24882,-0.43782 -2.35776,-2.31882 -4.69485,-3.38797 -4.79488,-2.19352 -11.77222,-2.71623 -17.4966,-1.31075 -1.93661,0.47549 -5.69423,2.09347 -6.96751,3.00013 l -0.7428,0.52892 -0.34096,-0.94292 c -0.40735,-1.1265 -0.53327,-1.00784 2.75961,-2.60044 2.92515,-1.41476 5.69774,-2.15856 9.59114,-2.57303 2.50094,-0.26624 2.97656,-0.38875 2.97656,-0.7667 0,-0.24741 0.24112,-1.01234 0.53582,-1.69984 0.2947,-0.68751 0.49133,-1.29449 0.43696,-1.34887 -0.0544,-0.0544 -0.54091,0.61733 -1.0812,1.49266 -0.9042,1.46493 -1.05745,1.59151 -1.92678,1.59151 h -0.94445 l 0.18409,-0.99219 c 0.43036,-2.31948 0.46677,-3.26949 0.15423,-4.02404 -0.35151,-0.84862 -1.15151,-1.1257 -2.89114,-1.00138 -0.88672,0.0634 -0.91179,0.0358 -1.45521,-1.59946 -0.31329,-0.94278 -1.05374,-2.29877 -1.70842,-3.12865 l -1.15548,-1.46471 -0.71166,0.68181 c -0.67261,0.6444 -0.88695,0.68621 -3.9071,0.76204 -3.93966,0.0989 -5.25691,0.63433 -6.65154,2.70361 -0.74863,1.11079 -0.86809,1.49738 -0.79375,2.56877 0.0481,0.69366 0.002,1.26112 -0.10172,1.26103 -0.52087,-5.3e-4 -2.1828,-1.84655 -2.84719,-3.16269 -0.41329,-0.81873 -1.50651,-2.47982 -2.42938,-3.69132 -0.92288,-1.2115 -1.8822,-2.57601 -2.13183,-3.03225 -0.24963,-0.45624 -0.87471,-1.19933 -1.38906,-1.65132 -1.13119,-0.99402 -1.17181,-1.1935 -0.18542,-0.91061 0.41237,0.11827 1.45417,0.29283 2.3151,0.38793 2.21145,0.24426 2.94029,-0.25687 3.92264,-2.69707 0.50797,-1.26183 0.69691,-2.09433 0.58054,-2.55799 -0.0963,-0.38359 -0.0288,-0.94806 0.15276,-1.27725 0.22387,-0.40599 0.33148,-2.19824 0.34519,-5.74926 0.0176,-4.57067 0.0872,-5.3707 0.60936,-7.01146 1.56103,-4.90487 1.12994,-9.41931 -1.16753,-12.2267 -1.60455,-1.96067 -7.36342,-5.1035 -9.35156,-5.1035 -0.69559,0 -0.6783,-0.26804 0.15102,-2.34101 1.02256,-2.556 1.92769,-6.38508 2.35489,-9.96212 0.95551,-8.00074 1.11254,-8.84445 1.81839,-9.76987 0.37169,-0.4873 1.62982,-1.74744 2.79586,-2.80032 2.59247,-2.34086 2.81075,-2.98189 1.75217,-5.145569 -0.85945,-1.75663 -2.13756,-3.07556 -3.6855,-3.80318 -1.51716,-0.71315 -4.36247,-1.19944 -6.06232,-1.0361 -1.5949,0.15325 -2.17301,0.71618 -2.44548,2.3813 -0.10114,0.61805 -0.5878,2.35254 -1.08147,3.854429 -0.51915,1.5794 -0.89758,3.26902 -0.89758,4.00752 0,0.99533 -0.43161,2.29392 -1.95775,5.89035 -4.10818,9.6811 -5.11827,12.75053 -5.98774,18.1954 -0.17429,1.09141 -0.39262,2.11997 -0.48518,2.28571 -0.0926,0.16573 -0.79883,0.79789 -1.56949,1.40481 -2.94565,2.31976 -5.83258,7.44632 -6.5635,11.65531 -0.37381,2.15259 -0.38994,2.85039 -0.11232,4.85926 0.17829,1.29014 0.61266,3.19393 0.96526,4.23063 0.4871,1.43214 0.58026,2.04447 0.38782,2.54908 -0.27522,0.72169 -2.37976,7.47324 -3.03531,9.73753 -0.28698,0.99123 -0.33132,1.59543 -0.15174,2.06774 0.55334,1.45539 0.19268,0.90281 -1.05602,-1.61797 -0.72035,-1.45419 -1.58685,-2.98212 -1.92556,-3.39541 l -0.61583,-0.75144 -1.28885,0.68529 c -1.91301,1.01716 -2.44757,0.92837 -3.06365,-0.50889 -1.05997,-2.47282 -3.88447,-2.32127 -6.62381,0.35541 -1.88407,1.84098 -2.14559,2.78238 -1.47986,5.32718 0.49576,1.89505 2.10634,5.69006 3.22479,7.59855 l 0.72456,1.23637 0.82115,-1.03567 c 1.97254,-2.48787 4.38942,-5.0696 5.40412,-5.77271 1.40206,-0.97152 3.15545,-1.31779 4.48127,-0.88498 0.9519,0.31074 0.99277,0.37399 1.06375,1.64607 l 0.0738,1.32292 -0.68831,-0.8599 c -1.10084,-1.37526 -1.94347,-1.20506 -3.92964,0.79375 -0.90375,0.90951 -2.56973,2.77166 -3.70216,4.13811 -1.924,2.32161 -2.04756,2.54528 -1.88494,3.41212 0.36817,1.96251 1.3287,2.65873 5.88909,4.26857 4.3852,1.54801 6.33597,2.58239 6.66835,3.53586 0.28378,0.81404 0.38113,2.30628 0.15046,2.30628 -0.0702,0 -0.87386,-0.45642 -1.78593,-1.01427 -0.91207,-0.55785 -2.61081,-1.4435 -3.77498,-1.96812 -6.58287,-2.9665 -12.07673,-2.90442 -19.64479,0.22199 -1.86604,0.77088 -5.4269,2.54106 -5.84487,2.90562 -0.15224,0.13279 1.11997,1.88162 2.8939,3.97809 4.50772,5.32733 13.52688,11.5644 20.64155,14.27437 1.07482,0.4094 2.50368,1.08115 3.17524,1.49279 3.34639,2.05118 8.95163,4.07777 13.8367,5.0027 5.14156,0.97349 10.23975,1.12457 16.16311,0.47898 z m 10.68016,-4.74788 c -0.0195,-0.211 -0.008,-1.29758 0.0262,-2.41462 0.0553,-1.82167 -0.0265,-2.20997 -0.79333,-3.76772 -1.08947,-2.21302 -1.00244,-2.84226 0.90127,-6.51623 1.78314,-3.44129 2.24265,-5.38949 1.83396,-7.77542 -0.37456,-2.18665 -2.56758,-7.00303 -3.87336,-8.50677 -1.44743,-1.66688 -1.90121,-1.51683 -0.91567,0.30278 0.74271,1.37126 0.76568,1.4941 0.33793,1.80688 -0.37181,0.27187 -0.40246,0.44115 -0.16145,0.89149 0.16363,0.30574 0.54758,0.59397 0.85324,0.64051 0.39364,0.0599 0.75729,0.54766 1.24675,1.67212 0.62065,1.42588 0.69209,1.92422 0.70161,4.8948 0.0101,3.1368 -0.0285,3.3823 -0.74837,4.7625 -1.06658,2.04497 -1.17324,2.15372 -1.75565,1.79 -1.07928,-0.67402 -1.81834,1.00722 -0.7666,1.74389 0.77106,0.54007 0.47707,1.86459 -0.5248,2.36439 -0.68018,0.33932 -0.78958,0.30676 -1.74542,-0.5195 -0.56087,-0.48483 -1.88642,-1.42168 -2.94568,-2.08188 -2.73061,-1.70192 -4.65991,-2.0563 -11.34663,-2.0842 -4.8149,-0.0201 -5.46553,0.0326 -7.22145,0.58436 -2.96595,0.93205 -4.81709,2.84312 -4.81709,4.97305 v 0.97557 l -0.79474,-1.00006 c -1.41081,-1.77527 -1.86435,-3.86779 -2.12154,-9.78833 -0.12643,-2.91042 -0.35246,-5.70839 -0.50229,-6.21771 -1.44256,-4.90378 -2.06537,-8.71773 -2.37631,-14.55208 -0.10471,-1.96454 -0.16102,-3.61385 -0.12514,-3.66514 0.0359,-0.0513 0.50154,0.78214 1.03483,1.85208 1.77509,3.56145 3.80023,5.0965 6.73728,5.10682 2.11507,0.007 3.95211,-0.89002 5.95312,-2.90831 1.93161,-1.94829 2.31078,-2.84052 3.79103,-8.92067 l 0.17772,-0.73001 3.23102,1.78834 c 4.85748,2.68858 4.70648,2.53354 4.70648,4.83249 v 1.92861 l 3.43959,3.28391 c 1.89177,1.80615 3.90298,3.52606 4.46935,3.82203 1.47615,0.77137 3.4472,2.70043 3.94408,3.86006 3.29308,7.68542 3.28346,7.63893 2.43834,11.77905 -0.36764,1.80098 -0.8921,5.98766 -1.18156,9.43213 -0.28627,3.40652 -0.64442,6.3176 -0.79588,6.46906 -0.19078,0.19078 -0.28627,0.15752 -0.31084,-0.10827 z m 3.14432,-7.68088 c -0.25466,-0.14832 -0.46302,-0.53392 -0.46302,-0.85688 0,-0.47647 0.61122,-0.92722 3.24115,-2.39022 4.3661,-2.42881 10.50614,-5.39588 14.26696,-6.89425 2.96256,-1.18034 6.73659,-1.99458 11.41779,-2.46337 1.26894,-0.12708 1.2764,-0.12322 1.19063,0.61538 -0.0848,0.73039 -0.14778,0.75605 -3.63711,1.4824 -11.12662,2.31616 -15.08596,3.8944 -22.11501,8.81528 -1.55354,1.08759 -2.96271,1.97382 -3.13149,1.96939 -0.16878,-0.004 -0.51524,-0.1294 -0.7699,-0.27773 z m -41.07656,-1.59435 c -4.05043,-2.99802 -8.63071,-5.33816 -13.92287,-7.11342 -3.14008,-1.05334 -5.10053,-1.51042 -9.17162,-2.13836 -3.72789,-0.575 -4.28989,-0.79898 -4.28989,-1.70969 0,-0.60454 0.0948,-0.65215 1.29825,-0.65215 0.87014,0 1.87596,0.2592 3.05016,0.78603 1.7393,0.78037 3.62673,1.36879 10.99742,3.42853 5.65732,1.58094 7.96961,2.5162 12.35121,4.99574 1.97879,1.11979 2.19147,1.32049 2.47593,2.33646 0.31932,1.1405 0.19869,1.70103 -0.35681,1.65798 -0.17332,-0.0134 -1.26762,-0.72943 -2.43178,-1.59112 z m 6.18394,-27.21524 c -1.95447,-0.59121 -4.02791,-2.81272 -5.1094,-5.47427 l -0.64493,-1.58718 0.66663,-2.22836 c 1.68392,-5.62895 3.68697,-11.73971 4.71991,-14.3992 0.62172,-1.60073 1.4966,-3.98198 1.94418,-5.29166 0.44758,-1.30969 1.16318,-3.39328 1.59022,-4.63021 0.91265,-2.64349 1.24085,-3.94971 0.89748,-3.57188 -0.13225,0.14552 -0.81355,1.93146 -1.51402,3.96875 -0.70046,2.0373 -2.01034,5.60917 -2.91083,7.9375 -0.9005,2.32834 -1.72902,4.47146 -1.84116,4.7625 -0.30074,0.78059 -1.13316,-1.77715 -1.50315,-4.6187 -0.24144,-1.85429 -0.2199,-2.68834 0.11988,-4.64171 0.73088,-4.20188 3.69398,-9.16016 6.72151,-11.24744 1.3007,-0.89674 1.34136,-0.96503 1.65128,-2.77347 1.1963,-6.98056 1.76287,-8.69537 7.03785,-21.30097 0.77858,-1.86057 1.16474,-3.17136 1.1692,-3.96875 0.004,-0.65484 0.14256,-1.66687 0.30868,-2.24896 0.28415,-0.99568 0.31302,-1.01907 0.48758,-0.39516 0.51474,1.83976 1.69369,3.11457 2.14936,2.32413 0.74726,-1.29624 0.87402,-1.32781 1.40116,-0.34897 0.61581,1.1435 1.11383,1.19441 1.34594,0.1376 0.0961,-0.43778 0.40327,-0.91822 0.68248,-1.06765 0.67604,-0.3618 0.64518,-1.21919 -0.0574,-1.59521 -0.46001,-0.24619 -0.75058,-0.19817 -1.56258,0.2582 -1.11575,0.62708 -1.86753,0.49756 -2.74114,-0.47226 -0.41377,-0.45934 -0.57538,-0.5 -0.90944,-0.2288 -0.33791,0.27431 -0.37929,0.25771 -0.24598,-0.0987 0.0881,-0.23566 0.42688,-1.515599 0.75274,-2.844279 0.41148,-1.67783 0.71105,-2.4158 0.98067,-2.4158 0.29023,0 0.34815,0.20033 0.22946,0.79375 -0.17021,0.85105 0.0954,1.0311 0.60872,0.4126 0.17398,-0.20963 0.48168,-0.31769 0.68378,-0.24014 0.52429,0.20119 0.75098,1.1095 0.3865,1.54866 -0.23961,0.28872 -0.21612,0.50599 0.10412,0.9632 0.40691,0.58095 0.42595,0.56316 1.191,-1.11311 0.7769,-1.70223 0.7777,-1.70295 1.06465,-0.95867 0.15794,0.40965 0.28717,0.82964 0.28717,0.93331 0,0.10367 0.20249,0.47758 0.44997,0.83091 0.24749,0.35334 0.46702,0.87385 0.48786,1.1567 0.0208,0.282849 0.24562,0.666179 0.49951,0.851829 0.41762,0.30537 0.39025,0.34574 -0.28716,0.42353 -1.4052,0.16136 -1.00696,1.80577 0.43732,1.80577 0.40092,0 0.87717,-0.17859 1.05833,-0.39687 0.18116,-0.21828 0.54024,-0.39688 0.79795,-0.39688 0.31064,0 -0.18169,0.63053 -1.46074,1.87075 -2.90668,2.81846 -2.92954,2.88816 -3.98392,12.15217 -0.50438,4.43152 -1.37354,7.75029 -3.10083,11.84006 -0.7906,1.87193 -1.52247,3.99207 -1.62639,4.71141 -0.10391,0.71935 -0.78367,3.80822 -1.51058,6.86415 -1.1723,4.92836 -2.33759,11.23868 -2.3428,12.68677 -0.004,1.0844 0.54468,-0.0567 0.703,-1.46224 0.0889,-0.78922 0.26945,-1.57238 0.40124,-1.74036 0.13178,-0.16799 0.1683,-0.58952 0.0812,-0.93675 -0.0875,-0.34845 0.19962,-2.07916 0.64066,-3.86248 0.43951,-1.77713 1.04282,-4.49404 1.34069,-6.03758 0.29788,-1.54355 0.92719,-3.95424 1.39848,-5.35711 l 0.85688,-2.55066 1.5875,0.0302 c 1.8313,0.0348 3.60156,0.73968 6.22604,2.47901 3.33409,2.20962 4.35557,4.28801 4.16332,8.47102 -0.13662,2.97254 -0.90194,5.94694 -1.32166,5.13657 -0.14424,-0.2785 -0.66031,-0.92308 -1.14682,-1.43241 -0.48652,-0.50932 -1.27916,-1.35671 -1.76144,-1.88309 -0.66096,-0.7214 -1.221,-1.03086 -2.27441,-1.25677 -2.75122,-0.59004 -4.41344,-0.27568 -6.34914,1.20075 -1.10876,0.8457 -2.06246,2.91241 -2.48736,5.39027 l -0.31429,1.8328 0.7808,0.82402 c 1.47305,1.5546 2.89445,2.35869 4.16951,2.35869 1.40844,0 1.91612,0.46927 1.64423,1.51983 -1.15316,4.45579 0.60171,7.39955 4.99461,8.37835 l 1.29631,0.28884 -0.72111,0.38592 c -0.63953,0.34226 -0.97963,0.33271 -3.00643,-0.0845 -2.11932,-0.43624 -2.3085,-0.43874 -2.60415,-0.0344 -0.28499,0.38974 -0.5387,0.28336 -2.39091,-1.00249 -1.13965,-0.79117 -2.65373,-1.77388 -3.3646,-2.18382 -1.63719,-0.94409 -2.49935,-2.6643 -2.73317,-5.45329 -0.1316,-1.56968 -0.20455,-1.79612 -0.40836,-1.26747 -0.13648,0.354 -0.24596,1.53661 -0.2433,2.62802 0.004,1.58317 0.1767,2.43907 0.8549,4.23333 1.16383,3.07909 1.22463,5.56901 0.18771,7.68755 -0.97983,2.00189 -1.81824,2.7759 -2.57069,2.3732 -0.77744,-0.41607 -1.11583,-1.44659 -1.0366,-3.15685 0.0507,-1.09527 -0.0366,-1.50736 -0.36327,-1.71339 -0.5928,-0.37393 -1.52539,0.1609 -2.15406,1.23534 -1.54194,2.63526 -1.79652,3.37656 -1.70651,4.96904 0.0863,1.52772 0.0707,1.57002 -0.57269,1.54744 -0.3638,-0.0128 -0.97431,-0.11786 -1.35668,-0.23353 z m 5.65047,-19.7864 c 0.701,-0.79738 1.43718,-2.48397 2.28314,-5.23066 1.07238,-3.48185 2.58848,-9.9015 2.81064,-11.90111 0.3175,-2.85775 2.05412,-8.63606 4.9699,-16.53646 0.51021,-1.38245 1.36408,-4.23995 1.89748,-6.35 1.4554,-5.75735 1.43246,-5.2247 0.24634,-5.72029 -1.41588,-0.59159 -2.2129,-0.13774 -2.61741,1.49048 l -0.29492,1.1871 -0.20258,-1.04919 c -0.55383,-2.86838 -1.91209,-3.399 -2.39385,-0.93518 -0.0996,0.50932 -0.87876,2.35479 -1.73149,4.10104 -2.81534,5.76534 -4.49908,11.33891 -4.63587,15.34583 -0.0348,1.01865 -0.15332,2.19142 -0.26343,2.60617 -0.20689,0.7792 0.31028,3.52439 0.71056,3.77178 0.42332,0.26162 0.21314,0.81599 -0.41849,1.10378 -0.59497,0.27109 -0.62841,0.39484 -0.49732,1.8405 0.12093,1.33361 0.0384,1.75124 -0.59124,2.99299 -0.76496,1.50854 -1.22925,3.18663 -1.86334,6.73478 -0.68416,3.82829 -0.40015,5.90076 0.90584,6.61024 0.92352,0.50171 1.19954,0.49159 1.68604,-0.0618 z m 7.54134,-42.68527 c 0.0936,-0.35777 0.2135,-0.47771 0.27955,-0.27955 0.0636,0.19088 -0.0101,0.47285 -0.16386,0.6266 -0.19634,0.19634 -0.23077,0.093 -0.11569,-0.34705 z m 8.31929,51.19412 c -0.75832,-0.53115 -2.75702,-3.04184 -2.57023,-3.22863 0.0768,-0.0768 0.34874,0.0435 0.60429,0.26747 0.25556,0.22392 0.82183,0.47495 1.2584,0.55786 2.52906,0.48027 4.10104,1.0625 4.10104,1.51895 0,1.21133 -2.13305,1.76721 -3.3935,0.88435 z m 1.47647,-4.26229 c -0.54243,-0.54243 -0.95492,-0.70679 -1.71378,-0.68287 -2.59755,0.0819 -2.9581,-0.55592 -1.04563,-1.84969 0.75303,-0.50942 1.62921,-1.05882 1.94707,-1.22089 1.32713,-0.67669 3.53424,-0.0631 3.51471,0.9771 -0.008,0.40561 -0.0389,0.40828 -0.33073,0.0282 -0.52365,-0.68202 -1.45465,-1.06011 -2.16897,-0.88083 -0.83758,0.21022 -0.88222,0.90376 -0.0582,0.90376 0.33479,0 0.93665,0.14883 1.33747,0.33073 0.62053,0.28162 0.70638,0.44654 0.57806,1.11065 -0.16285,0.84288 -0.8262,1.99821 -1.14729,1.99821 -0.10909,0 -0.51982,-0.32147 -0.91273,-0.71438 z m 0.8587,-6.16479 c -0.21829,-0.14107 -0.67469,-0.25831 -1.01424,-0.26053 -0.86341,-0.006 -0.58272,-0.64403 0.33043,-0.75149 0.69489,-0.0818 1.74214,0.55123 1.74214,1.05303 0,0.29876 -0.56653,0.27681 -1.05833,-0.041 z m 0.56385,-3.26549 c -0.16207,-0.19529 -0.21634,-0.43342 -0.12059,-0.52917 0.0958,-0.0958 -0.0711,-0.17409 -0.37086,-0.17409 -0.86194,0 -1.2361,-1.74484 -0.50438,-2.35212 0.48924,-0.40604 1.03908,0.2144 0.68548,0.77349 -0.36564,0.57812 -0.30697,0.78488 0.22275,0.78488 0.65206,0 1.11125,0.51385 1.11125,1.24354 0,0.67212 -0.56093,0.81101 -1.02365,0.25347 z m -5.89236,-0.97513 c -0.39339,-0.33787 -0.47481,-0.50928 -0.21993,-0.46302 0.22259,0.0404 0.42314,-0.0456 0.44568,-0.19115 0.0555,-0.35836 -0.78537,-0.17797 -1.11495,0.23919 -0.14552,0.1842 -0.85903,0.41577 -1.58557,0.51461 -1.21456,0.16524 -1.27611,0.14829 -0.76398,-0.21042 0.7699,-0.53926 3.18456,-1.46942 3.81455,-1.46942 0.57591,0 0.70669,-0.41817 0.18864,-0.60319 -0.80089,-0.28603 0.11697,-0.46186 1.07057,-0.20508 1.45012,0.39048 1.54852,0.88063 0.40059,1.99549 -1.10799,1.07606 -1.3838,1.12455 -2.2356,0.39299 z m 4.84708,-47.683869 c 0.0543,-0.38258 0.29729,-0.62553 0.67986,-0.67986 0.65426,-0.0929 0.80585,0.42964 0.27782,0.957669 -0.52804,0.52805 -1.0506,0.37646 -0.95768,-0.277809 z m 44.9891,81.954699 c 0.52212,-1.01865 1.43683,-2.56646 2.03269,-3.43959 0.85164,-1.24793 1.08351,-1.8298 1.08401,-2.72028 2.6e-4,-0.67546 -0.13289,-1.17431 -0.3301,-1.23565 -4.21454,-1.31086 -4.99089,-1.46802 -7.25151,-1.46802 -1.31613,0 -2.79768,0.13794 -3.29234,0.30654 -1.5402,0.52497 -3.14015,1.79761 -4.38797,3.49029 -1.5539,2.10786 -3.37692,5.71537 -3.05227,6.04001 0.13494,0.13494 1.18559,0.34319 2.33477,0.46277 2.23182,0.23223 3.91001,0.82755 8.16773,2.89742 l 2.63871,1.2828 0.55349,-1.88211 c 0.30442,-1.03515 0.98067,-2.71554 1.50279,-3.73418 z m -100.46329,3.59282 c 2.55246,-1.47917 4.28862,-2.03858 7.53686,-2.42842 1.52797,-0.18339 2.81556,-0.35939 2.8613,-0.39112 0.14918,-0.10347 -1.45639,-4.43479 -2.32685,-6.27713 -1.55433,-3.28974 -3.16953,-5.05107 -5.82611,-6.3532 -1.65244,-0.80994 -1.84415,-0.84223 -4.8948,-0.82445 -2.81793,0.0164 -3.38329,0.10067 -5.027079,0.74913 -1.01865,0.40185 -2.11997,0.79436 -2.447397,0.87224 -0.527687,0.12553 -0.595307,0.30626 -0.595307,1.59127 0,0.99185 0.15677,1.67147 0.496407,2.15197 0.27302,0.38627 1.522537,2.77285 2.776687,5.30351 1.254159,2.53067 2.714969,5.13169 3.246259,5.78006 1.16192,1.41797 1.47558,1.40498 4.20003,-0.17386 z m 12.64762,-5.86943 c -3.0288,-5.3804 -5.91084,-12.88795 -6.94691,-18.09631 -0.91198,-4.58453 -1.15216,-7.61285 -0.99498,-12.54502 0.12365,-3.88023 0.28255,-5.24264 0.95688,-8.20423 1.26389,-5.55097 3.03017,-10.73973 5.09569,-14.9695 0.54879,-1.12382 0.62014,-1.3943 0.24429,-0.92604 -1.41865,1.76742 -3.85561,7.59296 -5.14668,12.30312 -3.86757,14.10984 -2.87192,25.39369 3.32677,37.70313 1.63459,3.24599 4.31038,7.36116 4.59885,7.07269 0.0641,-0.0641 -0.44616,-1.11612 -1.13391,-2.33784 z m 74.49822,-6.82813 c 4.90512,-9.56343 5.87661,-17.90214 3.47613,-29.8372 -1.0058,-5.00075 -3.48673,-12.3146 -4.4476,-13.11161 -0.35993,-0.29855 -0.35985,-0.24981 7.9e-4,0.4598 1.74097,3.42643 4.01966,13.78494 4.5987,20.90492 0.50807,6.24725 -2.06079,17.46193 -5.75692,25.13258 -1.1911,2.47192 0.40897,-0.195 2.12899,-3.54849 z m -3.66944,1.4747 c 2.83073,-6.00115 3.41159,-8.10451 2.59793,-9.40738 -0.5161,-0.82641 -1.61304,-1.08654 -4.58175,-1.08654 -2.6438,0 -2.73327,-0.0204 -4.75566,-1.08593 -2.88942,-1.5223 -3.38486,-1.24672 -4.79132,2.66506 -0.39075,1.08681 -1.00578,2.44383 -1.36673,3.0156 -0.56444,0.89414 -0.58757,1.00933 -0.16528,0.82326 1.08886,-0.47976 2.66093,-0.44199 3.69607,0.0888 1.6051,0.82306 4.85068,3.75681 6.45221,5.83229 0.80036,1.03723 1.49326,1.88681 1.53976,1.88797 0.0465,0.001 0.66515,-1.22875 1.37477,-2.73314 z m 22.11053,-3.6733 c 1.75291,-2.83379 2.10541,-3.6268 2.30074,-5.17597 0.12742,-1.01053 0.0562,-1.21451 -0.6566,-1.88069 -0.95987,-0.89707 -0.8451,-1.67589 0.33705,-2.2872 0.71376,-0.3691 0.775,-0.51522 0.775,-1.84918 v -1.44841 h -2.10105 c -1.15558,0 -2.16413,0.10206 -2.24123,0.2268 -0.0771,0.12474 -1.12592,0.29091 -2.33072,0.36926 -3.6999,0.24062 -6.24579,1.53209 -8.06537,4.09136 -1.39932,1.96817 -4.1745,9.86466 -3.46689,9.86466 0.15502,0 1.1297,-0.30927 2.16595,-0.68727 1.66527,-0.60745 2.16067,-0.67161 4.26535,-0.55242 1.59642,0.0904 3.20968,0.3962 4.89479,0.92781 1.38245,0.43612 2.5361,0.80377 2.56367,0.817 0.0276,0.0132 0.72925,-1.07386 1.55931,-2.41575 z m -111.25716,-3.14971 c 1.37031,-0.15452 3.70564,-0.23724 5.18963,-0.18382 2.31506,0.0833 2.81577,0.18408 3.52653,0.70957 0.4556,0.33684 0.88615,0.55465 0.95677,0.48403 0.20416,-0.20416 -0.71596,-5.23392 -1.17087,-6.40048 -0.99841,-2.56029 -2.55872,-4.15088 -5.08455,-5.18322 -1.20494,-0.49248 -2.10389,-0.6149 -5.226999,-0.7118 -5.307852,-0.16469 -5.091732,-0.35872 -5.091732,4.5714 v 3.82357 l 0.808254,0.41797 c 0.732257,0.37867 0.800677,0.52236 0.727607,1.52815 -0.0644,0.88705 -0.17372,1.09455 -0.543687,1.03243 -0.376667,-0.0632 -0.463017,0.11936 -0.463017,0.97915 v 1.05689 l 1.940298,-0.92145 c 1.485597,-0.7055 2.524177,-0.98729 4.431766,-1.20239 z m 93.1089,-4.53081 c -0.001,-0.32742 0.36806,-2.47286 0.82081,-4.76765 0.9236,-4.68142 0.91479,-4.74144 -0.89849,-6.1245 -2.02679,-1.54591 -8.28146,-3.49934 -10.42932,-3.25724 -1.71362,0.19314 -2.08753,0.67133 -2.27669,2.91152 -0.0888,1.05122 -0.52243,3.03653 -0.9637,4.41179 -1.14768,3.57679 -1.03955,4.7607 0.40176,4.39895 0.66327,-0.16647 7.71786,0.22095 9.86466,0.54174 0.59149,0.0884 1.24555,0.51073 1.98438,1.28135 1.27562,1.33051 1.49983,1.42101 1.49659,0.60404 z m -75.5442,-3.93575 c 2.11008,-0.95852 4.74623,-0.49232 6.23637,1.10288 0.70345,0.75304 0.83135,0.7939 1.71831,0.549 0.52706,-0.14553 1.37217,-0.58028 1.87803,-0.96612 0.88365,-0.67398 0.9036,-0.72652 0.50846,-1.33852 -1.29922,-2.01227 -1.25322,-1.76616 -0.52916,-2.83171 0.55843,-0.8218 0.61641,-1.07234 0.35934,-1.55268 -0.18541,-0.34645 -0.24806,-1.13928 -0.15855,-2.00657 l 0.14799,-1.43382 -1.50451,-0.66547 c -1.94672,-0.86108 -4.24818,-0.78242 -6.41585,0.21927 -1.83689,0.84885 -4.68577,3.48218 -5.59128,5.16824 -0.77744,1.44761 -1.33773,3.77331 -1.13987,4.73152 0.45314,2.19447 0.23133,2.10914 1.91585,0.73708 0.82969,-0.67579 1.98838,-1.44669 2.57487,-1.7131 z m 82.70068,0.3165 c 2.91413,-1.79308 6.55859,-2.87891 10.39895,-3.09825 l 2.99613,-0.17112 -0.36428,-1.57684 c -0.38968,-1.68673 -0.17267,-3.01052 0.59841,-3.65046 0.49156,-0.40796 0.48367,-1.14193 -0.034,-3.16272 -0.22956,-0.89606 -0.3638,-1.76888 -0.29831,-1.9396 0.0871,-0.22696 -0.74318,-0.3104 -3.08835,-0.3104 -3.0347,0 -3.30014,0.0439 -4.9294,0.81606 -2.05521,0.97399 -4.0265,2.84445 -5.44843,5.16975 l -1.03167,1.6871 -0.13229,3.50624 c -0.0728,1.92844 -0.0859,3.50601 -0.0293,3.50573 0.0567,-2.6e-4 0.66981,-0.34925 1.36254,-0.77549 z m -92.5591,-7.53868 -0.0769,-5.13922 -4.07351,-2.40168 -4.0735,-2.40169 h -2.927249 -2.927235 v 1.32292 c 0,0.99954 0.097,1.32292 0.396877,1.32292 0.554627,0 0.494457,0.35883 -0.15938,0.95055 -1.119134,1.01281 -1.295821,1.75998 -1.295821,5.47984 v 3.54626 l 1.389051,-0.37515 c 2.714138,-0.73302 8.091547,0.18072 11.752887,1.99706 0.84833,0.42085 1.66148,0.78143 1.807,0.80129 0.17081,0.0233 0.23735,-1.78523 0.18773,-5.1031 z m 8.16558,-1.32476 c 4.07803,-2.91455 4.03973,-2.89568 5.14059,-2.53236 0.70171,0.23158 1.43604,0.20466 3.32934,-0.12207 1.33599,-0.23055 2.51682,-0.47342 2.62407,-0.53971 0.10725,-0.0663 0.27205,-1.22443 0.36622,-2.57366 0.0942,-1.34923 0.24359,-3.32487 0.33202,-4.39031 l 0.16079,-1.93715 -2.48025,0.10816 c -1.52967,0.0667 -3.24079,0.33809 -4.46463,0.70807 -1.09141,0.32995 -2.78013,0.82659 -3.75271,1.10365 -2.03499,0.57972 -3.23764,1.4766 -3.81626,2.84599 -0.56388,1.33449 -1.19077,9.55948 -0.7286,9.55948 0.093,0 1.57324,-1.00354 3.28942,-2.23009 z m 77.54899,-7.31798 c -1.54433,-3.42399 -2.72818,-3.96044 -9.1467,-4.14475 l -4.47149,-0.1284 0.18192,1.02363 c 0.3912,2.20115 0.49033,4.82602 0.21237,5.62337 -0.34153,0.97971 -0.30049,0.99518 3.12473,1.17791 2.50504,0.13364 4.98457,0.92729 8.59896,2.75236 l 2.11667,1.0688 0.0744,-2.83809 c 0.0694,-2.64583 0.0226,-2.95305 -0.69087,-4.53483 z m 8.68625,3.27202 c 2.69671,-1.80407 7.2931,-3.7346 7.76593,-3.26177 0.35555,0.35555 1.64418,0.35751 2.30563,0.004 0.61184,-0.32745 0.68618,-1.58279 0.14493,-2.4474 -0.33083,-0.52848 -0.64201,-1.97889 -1.09616,-5.10923 -0.14697,-1.01307 -0.2582,-1.13192 -1.70773,-1.82473 -1.80917,-0.86471 -3.13325,-0.81601 -5.02975,0.18497 -2.53828,1.33973 -5.54887,4.87804 -5.55537,6.52917 -10e-4,0.34692 -0.14219,1.09705 -0.31294,1.66696 -0.2379,0.79407 -0.23721,1.58628 0.003,3.39021 0.44353,3.33132 0.46907,3.37376 1.46712,2.43805 0.45361,-0.42528 1.36053,-1.13166 2.01537,-1.56974 z m -94.09385,-3.3151 c 0.0877,-0.32742 0.16116,-0.91212 0.16315,-1.29934 0.002,-0.38722 0.22869,-1.42723 0.5038,-2.31114 l 0.50019,-1.60711 -2.28613,-1.47096 c -5.92615,-3.81304 -10.091339,-4.89744 -10.091339,-2.62725 0,1.00661 -0.3017,1.48561 -1.164067,1.84812 -0.810567,0.34073 -0.820647,0.36863 -0.850024,2.35183 l -0.0297,2.007 h 1.892361 c 2.606249,0 4.570519,0.55429 7.824379,2.20794 1.52797,0.77653 2.91307,1.43086 3.078,1.45405 0.16493,0.0232 0.37166,-0.22571 0.45941,-0.55314 z m 7.75159,-4.1932 c 3.66337,-1.59054 7.03475,-2.34987 10.44822,-2.35324 l 2.02575,-0.002 -0.28647,-0.93343 c -0.20853,-0.67944 -0.20179,-1.56954 0.0248,-3.27114 0.51337,-3.85583 0.6394,-3.59098 -1.74167,-3.6601 -1.12647,-0.0327 -2.86323,0.0594 -3.85947,0.20478 -3.60154,0.52538 -4.59819,1.46151 -6.90506,6.48581 -0.95405,2.07801 -1.73464,3.84707 -1.73464,3.93136 0,0.29814 0.7655,0.14647 2.02858,-0.40193 z m 76.1858,-2.38929 c -0.21633,-0.92715 -0.58217,-2.13487 -0.81298,-2.68382 -0.54798,-1.30324 -2.11008,-3.01586 -3.30841,-3.6272 -1.21014,-0.61737 -3.60801,-1.06326 -5.7179,-1.06326 -1.07111,0 -2.04344,-0.18202 -2.79567,-0.52335 -1.46565,-0.66506 -2.77002,-0.69293 -3.10535,-0.0663 -0.18195,0.33997 -0.0497,0.93925 0.48155,2.18281 0.94252,2.20611 3.11054,6.21347 3.56608,6.59153 0.25879,0.21478 1.07379,0.18404 3.07017,-0.11581 3.18296,-0.47808 4.75209,-0.28695 7.25495,0.88369 1.09676,0.51297 1.62718,0.64812 1.68151,0.42842 0.0436,-0.17651 -0.0976,-1.07951 -0.31395,-2.00666 z m 6.84917,-0.80444 c 0.87312,-0.89578 2.18706,-2.01341 2.91985,-2.48362 1.4315,-0.91855 4.46857,-1.96955 5.69136,-1.96955 0.41265,0 0.80988,-0.0964 0.88273,-0.21434 0.0729,-0.11788 -0.22016,-0.95469 -0.65116,-1.85958 -0.43099,-0.90489 -0.9498,-2.28325 -1.1529,-3.06302 -0.30184,-1.15882 -1.01454,-2.89506 -1.34676,-3.28091 -0.0395,-0.0459 -0.76932,0.26861 -1.62175,0.69891 -3.01928,1.52413 -5.81674,3.97993 -7.79548,6.84339 l -0.76624,1.10883 0.99413,2.92568 c 0.54678,1.60913 1.05366,2.92506 1.12643,2.92429 0.0728,-7.9e-4 0.84666,-0.7343 1.71979,-1.63008 z m -88.70101,-1.67486 c 0.2987,-0.86334 0.88213,-2.1875 1.29652,-2.94257 0.41439,-0.75508 0.75344,-1.62615 0.75344,-1.93572 0,-1.00444 -0.72379,-2.33063 -1.88927,-3.46169 -1.50068,-1.45636 -6.21024,-4.55117 -6.76296,-4.44417 -0.23853,0.0462 -0.88776,0.97693 -1.44272,2.06834 -0.55496,1.09141 -1.78485,3.02765 -2.73308,4.30277 -0.94823,1.27512 -1.724059,2.36578 -1.724059,2.42369 0,0.0579 1.096439,0.35775 2.436529,0.6663 3.11309,0.71677 5.77492,2.00553 7.61764,3.68818 0.80037,0.73084 1.55638,1.30086 1.68004,1.26669 0.12366,-0.0342 0.46922,-0.76847 0.76792,-1.63182 z m 85.14409,-6.60738 c 1.31518,-2.08245 3.18234,-3.80478 5.51275,-5.08517 2.92729,-1.60832 2.92451,-1.30955 0.0394,-4.24578 -1.39572,-1.42048 -3.13255,-3.28442 -3.85961,-4.14209 l -1.32192,-1.5594 -1.16688,1.54551 c -1.83852,2.43511 -3.71666,6.66592 -3.71666,8.37239 0,0.59177 3.07063,6.81093 3.36935,6.82419 0.0341,0.002 0.54871,-0.76783 1.14353,-1.70965 z m -74.0983,0.87718 c 6.3095,-1.09016 8.09999,-1.76313 8.37709,-3.14865 0.12763,-0.63813 0.29386,-0.76229 1.11201,-0.83061 l 0.96195,-0.0803 0.0788,-1.65616 c 0.0729,-1.5319 0.11639,-1.63607 0.57926,-1.38835 0.33474,0.17915 0.5548,0.17982 0.66469,0.002 0.39572,-0.64029 -3.39257,-1.43322 -5.92387,-1.23992 -3.99787,0.30528 -5.36822,1.20308 -7.02073,4.59966 -0.5523,1.1352 -1.35388,2.58432 -1.78129,3.22027 l -0.77711,1.15627 1.00469,-0.16854 c 0.55258,-0.0927 1.7786,-0.30226 2.72448,-0.46569 z m 67.20417,-0.33216 c 0,-0.06 -0.49745,-0.98271 -1.10545,-2.05052 -2.5634,-4.50202 -4.6089,-6.3071 -7.14717,-6.3071 -0.63866,0 -1.84687,-0.17859 -2.6849,-0.39687 -1.55199,-0.40424 -4.14373,-0.54134 -4.14373,-0.2192 0,0.0977 0.31662,0.96093 0.70359,1.91823 0.38698,0.9573 0.90752,2.51446 1.15678,3.46034 l 0.45319,1.71979 1.81979,0.0808 c 1.00087,0.0445 2.29632,-0.0521 2.87876,-0.21449 1.30821,-0.36482 2.41151,-0.12181 5.29102,1.16538 1.94786,0.87073 2.77812,1.12284 2.77812,0.8436 z m -74.34496,-2.60293 c 0.34626,-0.61846 1.27512,-2.11666 2.06414,-3.32934 1.2277,-1.8869 1.41336,-2.33558 1.28746,-3.11136 -0.28576,-1.76093 -1.57534,-2.98014 -5.25175,-4.96516 l -1.75588,-0.94806 -0.69205,0.90732 c -0.4667,0.61188 -0.99537,0.96423 -1.62354,1.08208 -0.65459,0.1228 -1.13871,0.46036 -1.62855,1.13552 -0.38338,0.52842 -1.03421,1.40116 -1.44629,1.93941 l -0.74925,0.97864 0.5969,0.42521 c 0.32829,0.23387 1.51403,1.01703 2.63498,1.74036 1.1701,0.75506 2.80398,2.15525 3.83646,3.28775 0.9891,1.08492 1.86574,1.97473 1.94809,1.97735 0.0823,0.003 0.43302,-0.50126 0.77928,-1.11972 z m 75.33435,-6.67903 c 0.47079,-2.2445 1.74498,-4.62783 3.49548,-6.5382 l 1.59427,-1.73986 -0.98905,-0.74925 c -0.54397,-0.41209 -2.07864,-1.80051 -3.41036,-3.08538 l -2.42133,-2.33612 -1.1136,2.01734 c -0.61248,1.10954 -1.10458,2.27655 -1.09357,2.59335 0.17929,5.15675 0.40351,6.99532 0.99673,8.17301 0.62328,1.23734 2.10363,3.11862 2.454,3.11862 0.10041,0 0.31975,-0.65408 0.48743,-1.45351 z m -54.22364,-0.79362 c 0.89916,-1.18968 1.28348,-1.43803 2.93329,-1.89554 0.29268,-0.0812 0.27228,-0.20607 -0.10102,-0.61857 -0.44266,-0.48913 -0.44346,-0.55396 -0.0149,-1.20806 0.24909,-0.38016 0.41361,-0.73027 0.3656,-0.77803 -0.26533,-0.26394 -4.76852,-0.92474 -6.26808,-0.91978 -2.07471,0.007 -3.50088,0.57905 -4.6862,1.88011 -0.99403,1.09108 -3.60327,4.46408 -3.45328,4.46408 0.0596,0 1.04061,-0.19277 2.1799,-0.42838 2.49139,-0.51523 4.8168,-0.38215 6.46048,0.36972 0.65009,0.29737 1.27333,0.52083 1.38499,0.49658 0.11166,-0.0243 0.6513,-0.63721 1.19919,-1.36213 z m 46.45491,0.0643 c -0.70781,-1.19444 -3.42761,-4.51965 -4.25957,-5.20773 -1.3501,-1.1166 -3.15255,-1.60529 -5.9208,-1.60529 -3.28169,0 -3.29339,0.009 -2.30019,1.80992 1.14268,2.07173 1.7211,2.66595 3.27168,3.36103 2.91711,1.30764 9.73068,2.5226 9.20888,1.64207 z m -60.47448,-2.71517 c 2.97188,-3.47301 2.8179,-3.19283 2.24874,-4.09176 -0.70114,-1.10737 -4.37169,-5.29776 -4.64055,-5.29776 -0.1236,0 -0.54757,0.53014 -0.94216,1.17809 -0.63842,1.04836 -0.87038,1.21067 -2.10648,1.47397 -1.28119,0.27289 -1.38906,0.35438 -1.38906,1.04922 0,1.35853 -0.18595,1.53425 -1.47039,1.38947 -0.75564,-0.0852 -1.17545,-0.0291 -1.17545,0.15711 0,0.15929 0.92274,0.8831 2.05052,1.60849 1.12779,0.72539 2.76117,2.0393 3.62974,2.91981 0.86857,0.88051 1.70201,1.59287 1.85209,1.58303 0.15007,-0.01 1.02442,-0.89619 1.943,-1.96967 z m 61.9716,-2.44421 c 0.0631,-3.09498 0.53975,-5.72129 1.39771,-7.7011 l 0.93372,-2.15463 h -1.32887 c -1.14541,0 -1.43483,-0.11344 -2.09647,-0.82173 -0.42219,-0.45195 -0.76762,-1.00047 -0.76762,-1.21893 0,-0.28475 -0.13108,-0.33563 -0.46302,-0.17972 -0.60885,0.28599 -2.68209,0.29472 -3.45588,0.0146 -0.59147,-0.21415 -0.60455,-0.18799 -0.39688,0.79374 0.27815,1.31498 0.18737,4.54126 -0.15298,5.43644 -0.24316,0.63955 -0.1617,0.78099 0.97727,1.69681 0.68339,0.5495 2.07597,1.80733 3.09462,2.79516 1.01864,0.98784 1.94138,1.7975 2.05052,1.79924 0.10914,0.002 0.20268,-0.20519 0.20788,-0.45985 z m -43.47646,-2.4532 c 0.59798,-0.43976 1.54417,-0.95819 2.10264,-1.15207 0.86198,-0.29923 1.00306,-0.45446 0.93365,-1.02725 -0.0907,-0.7481 0.17881,-0.99463 1.51979,-1.3904 l 0.90885,-0.26824 -2.33213,-1.36439 -2.33214,-1.36439 -0.69339,0.64397 c -0.38136,0.35418 -1.87188,1.44605 -3.31227,2.42637 -1.44039,0.98033 -3.10583,2.21402 -3.70098,2.74153 l -1.08209,0.95911 2.51035,0.25964 c 4.14139,0.42834 4.2805,0.41656 5.47772,-0.46388 z m -8.95647,-3.84792 c 0.053,-0.0479 -0.15226,-0.40316 -0.45606,-0.78939 -0.30381,-0.38623 -0.63096,-1.13664 -0.72699,-1.66758 -0.25264,-1.39676 -0.77473,-2.297 -1.72424,-2.97311 l -0.83458,-0.59429 -0.69076,0.81085 c -0.46936,0.55096 -1.02998,0.86676 -1.7491,0.98528 -0.88828,0.14641 -3.83645,1.81564 -3.83645,2.17217 0,0.0611 0.76714,0.9908 1.70475,2.06589 0.93762,1.07508 2.00896,2.43659 2.38076,3.02557 l 0.67602,1.07087 2.58017,-2.00955 c 1.41909,-1.10525 2.62351,-2.04877 2.67648,-2.09671 z m 39.4589,0.81102 c -1.17541,-0.80037 -2.42166,-1.45521 -2.76945,-1.45521 -0.34778,0 -0.8322,-0.19987 -1.07649,-0.44416 -0.38902,-0.38902 -0.59574,-0.40362 -1.66521,-0.11758 -0.67158,0.17962 -1.28388,0.39072 -1.36068,0.46911 -0.0768,0.0784 0.55053,0.78614 1.39407,1.57279 l 1.53369,1.43026 h 3.04059 3.04059 z m 5.08181,-3.38166 c -0.0783,-1.4918 0.0213,-2.72296 0.31201,-3.85784 0.23486,-0.916729 0.42702,-1.776239 0.42702,-1.910009 0,-0.13376 -0.51458,-0.24321 -1.1435,-0.24321 -1.4271,0 -3.41676,-0.6609 -4.03014,-1.33868 -0.59687,-0.65953 -1.09623,-0.65352 -1.30866,0.0158 -0.22004,0.6933 -1.03692,0.67465 -2.0501,-0.0468 l -0.80888,-0.57598 0.1911,0.7614 c 0.1051,0.41877 0.68534,1.77929 1.28942,3.02337 1.68914,3.478749 4.6105,6.192329 6.82114,6.336009 0.35503,0.0231 0.39883,-0.29228 0.30059,-2.16402 z m -41.12952,0.32937 c 2.22676,-1.11272 3.34095,-2.42869 4.03801,-4.769299 0.31174,-1.04676 0.62671,-2.05934 0.69995,-2.25018 0.0883,-0.23005 -0.18574,-0.40681 -0.8131,-0.5245 -0.80991,-0.15195 -1.07637,-0.0633 -1.84946,0.61551 -0.88077,0.77333 -3.27746,1.70311 -5.23138,2.02948 -0.91517,0.15287 -0.9585,0.2039 -0.74859,0.881769 0.88471,2.857 1.68562,4.82057 1.96622,4.82057 0.18189,0 1.05415,-0.36151 1.93835,-0.80335 z"
       id="path839"
       inkscape:connector-curvature="0" />
  </g>
</svg>
